0
SECTION
2
HEADER
0
ENDSEC
0
SECTION
2
ENTITIES
0
LWPOLYLINE
8
图纸层
90
4
70
1
10
0
20
0
10
5000
20
0
10
5000
20
4000
10
0
20
4000
0
TEXT
8
A-TITLE
10
400
20
3600
40
220
1
First floor plan
0
LINE
8
A-WALL
10
500
20
500
11
4200
21
500
0
LINE
8
A-WALL
10
500
20
800
11
4200
21
800
0
LINE
8
A-GRID
10
500
20
300
11
500
21
3500
0
INSERT
8
A-DOOR
2
DOOR900
10
1600
20
650
0
LWPOLYLINE
8
图纸层
90
4
70
1
10
6000
20
0
10
11000
20
0
10
11000
20
4000
10
6000
20
4000
0
TEXT
8
A-TITLE
10
6400
20
3600
40
220
1
South elevation
0
TEXT
8
A-LEVEL
10
10200
20
900
40
180
1
0.000
0
TEXT
8
A-LEVEL
10
10200
20
2200
40
180
1
+3.300
0
LINE
8
A-ELEVATION
10
6400
20
900
11
10000
21
900
0
LINE
8
A-ELEVATION
10
6400
20
2200
11
10000
21
2200
0
ENDSEC
0
EOF
