0
SECTION
2
HEADER
0
ENDSEC
0
SECTION
2
ENTITIES
0
LINE
8
A-WALL
10
0
20
0
11
6000
21
0
0
LINE
8
A-WALL
10
0
20
299.4
11
6000
21
299.4
0
LINE
8
A-WALL
10
8000
20
0
11
12000
21
3000
0
LINE
8
A-WALL
10
7820.36
20
239.52
11
11820.36
21
3239.52
0
LINE
8
A-DOOR
10
2400
20
150
11
3300
21
150
0
LINE
8
A-WINDOW
10
9400
20
1170
11
10000
21
1620
0
LINE
8
A-GRID
10
-1000
20
150
11
7000
21
150
6
CENTER
0
LINE
8
A-GRID
10
150
20
-1000
11
150
21
5300
6
CENTER
0
CIRCLE
8
S-COLUMN
10
2000
20
2000
40
199.2
0
LWPOLYLINE
8
S-COLUMN
90
4
70
1
10
3800
20
1800
10
4201
20
1800
10
4201
20
2200
10
3800
20
2200
0
LWPOLYLINE
8
A-RAMP
90
4
70
1
10
1000
20
5000
10
5000
20
5000
10
5000
20
6500
10
1000
20
6500
0
LINE
8
A-RAMP
10
1300
20
5750
11
4700
21
5750
0
TEXT
8
A-RAMP-TEXT
10
2800
20
6800
40
250
1
slope 1:12
0
TEXT
8
A-GRID-TEXT
10
-800
20
250
40
250
1
1
0
TEXT
8
A-GRID-TEXT
10
250
20
-800
40
250
1
A
0
ENDSEC
0
EOF
