0
SECTION
2
HEADER
0
ENDSEC
0
SECTION
2
ENTITIES
0
LINE
8
A-WALL
10
0
20
0
11
6000
21
0
0
LINE
8
A-WALL
10
0
20
299.4
11
6000
21
299.4
0
LINE
8
A-WALL
10
0
20
4000
11
6000
21
4000
0
LINE
8
A-WALL
10
0
20
4301
11
6000
21
4301
0
LINE
8
A-WALL
10
0
20
0
11
0
21
4301
0
LINE
8
A-WALL
10
300.2
20
0
11
300.2
21
4301
0
LINE
8
A-WALL
10
5700
20
0
11
5700
21
4301
0
LINE
8
A-WALL
10
6000
20
0
11
6000
21
4301
0
LINE
8
A-DOOR
10
2400
20
150
11
3300
21
150
0
LINE
8
A-WINDOW
10
5700
20
1600
11
5700
21
2600
0
LINE
8
A-GRID
10
-1000
20
150
11
7000
21
150
6
CENTER
0
LINE
8
A-GRID
10
150
20
-1000
11
150
21
5300
6
CENTER
0
TEXT
8
A-GRID-TEXT
10
-800
20
250
40
250
1
1
0
TEXT
8
A-GRID-TEXT
10
250
20
-800
40
250
1
A
0
TEXT
8
A-ANNO
10
3100
20
650
40
200
1
300厚墙
0
ENDSEC
0
EOF
