0
SECTION
2
HEADER
0
ENDSEC
0
SECTION
2
ENTITIES
0
LWPOLYLINE
8
图纸层
90
4
70
1
10
0
20
0
10
5600
20
0
10
5600
20
4200
10
0
20
4200
0
TEXT
8
A-TITLE
10
300
20
3850
40
220
1
First floor plan
0
LINE
8
A-GRID
10
0
20
0
11
0
21
3900
0
LINE
8
A-GRID
10
0
20
0
11
5200
21
0
0
LINE
8
A-WALL
10
700
20
700
11
5000
21
700
0
LINE
8
A-WALL
10
700
20
1000
11
5000
21
1000
0
LINE
8
A-LINE
10
2000
20
700
11
3200
21
700
0
LINE
8
A-LINE
10
2000
20
775
11
3200
21
775
0
LINE
8
A-LINE
10
2000
20
850
11
3200
21
850
0
LINE
8
A-LINE
10
2000
20
925
11
3200
21
925
0
LINE
8
A-LINE
10
2000
20
1000
11
3200
21
1000
0
TEXT
8
A-DIMS
10
2450
20
1350
40
180
1
C1225
0
LWPOLYLINE
8
图纸层
90
4
70
1
10
6500
20
0
10
12100
20
0
10
12100
20
4200
10
6500
20
4200
0
TEXT
8
A-TITLE
10
6800
20
3850
40
220
1
South elevation
0
LWPOLYLINE
8
A-ELEVATION
90
4
70
1
10
8500
20
900
10
9700
20
900
10
9700
20
3400
10
8500
20
3400
0
LWPOLYLINE
8
A-ELEVATION
90
4
70
1
10
8750
20
1200
10
9450
20
1200
10
9450
20
3100
10
8750
20
3100
0
TEXT
8
A-DIMS
10
9000
20
3600
40
180
1
C1225
0
ENDSEC
0
EOF
