0
SECTION
2
HEADER
0
ENDSEC
0
SECTION
2
ENTITIES
0
TEXT
8
A-TITLE
10
-500
20
4300
40
220
1
First floor plan
0
TEXT
8
A-NOTE
10
-500
20
4000
40
180
1
Floor height 3.300m
0
LINE
8
A-GRID
10
0
20
0
11
0
21
4200
0
TEXT
8
A-GRID
10
-120
20
4200
40
160
1
1
0
LINE
8
A-GRID
10
0
20
0
11
5200
21
0
0
TEXT
8
A-GRID
10
5200
20
-120
40
160
1
A
0
LINE
8
A-WALL
10
1000
20
1000
11
4800
21
1000
0
LINE
8
A-WALL
10
1000
20
1300
11
4800
21
1300
0
LINE
8
A-LINE
10
2000
20
1000
11
3200
21
1000
0
LINE
8
A-LINE
10
2000
20
1075
11
3200
21
1075
0
LINE
8
A-LINE
10
2000
20
1150
11
3200
21
1150
0
LINE
8
A-LINE
10
2000
20
1225
11
3200
21
1225
0
LINE
8
A-LINE
10
2000
20
1300
11
3200
21
1300
0
TEXT
8
A-DIMS
10
2500
20
1700
40
180
1
C1225
0
ARC
8
A-DOOR-GEO
10
3900
20
1150
40
900
50
270
51
0
0
TEXT
8
A-DIMS
10
3900
20
2100
40
180
1
M0921
0
ENDSEC
0
EOF
