0
SECTION
2
HEADER
0
ENDSEC
0
SECTION
2
ENTITIES
0
TEXT
8
A-TITLE
10
0
20
3200
40
250
1
First floor plan
0
TEXT
8
A-NOTE
10
0
20
2850
40
180
1
Floor height 3.600m
0
LINE
8
A-LINE
10
1000
20
1000
11
1000
21
2200
0
LINE
8
A-LINE
10
1300
20
1000
11
1300
21
2200
0
LINE
8
A-LINE
10
1600
20
1000
11
1600
21
2200
0
LINE
8
A-LINE
10
1900
20
1000
11
1900
21
2200
0
LINE
8
A-LINE
10
2200
20
1000
11
2200
21
2200
0
LINE
8
A-LINE
10
2500
20
1000
11
2500
21
2200
0
LINE
8
A-LINE
10
2800
20
1000
11
2800
21
2200
0
LINE
8
A-LINE
10
3100
20
1000
11
3100
21
2200
0
LINE
8
A-LINE
10
3400
20
1000
11
3400
21
2200
0
LINE
8
A-LINE
10
3700
20
1000
11
3700
21
2200
0
ENDSEC
0
EOF
