0
SECTION
2
HEADER
0
ENDSEC
0
SECTION
2
ENTITIES
0
TEXT
8
A-TITLE
10
0
20
12500
40
250
1
South architectural elevation
0
TEXT
8
A-LEVEL
10
6200
20
0
40
180
1
Level 1 +/-0.000
0
TEXT
8
A-LEVEL
10
6200
20
3600
40
180
1
Level 2 +3.600
0
TEXT
8
A-LEVEL
10
6200
20
7200
40
180
1
Level 3 +7.200
0
TEXT
8
A-LEVEL
10
6200
20
10800
40
180
1
Roof +10.800
0
LINE
8
A-ELEVATION
10
0
20
0
11
6000
21
0
0
LINE
8
A-ELEVATION
10
0
20
3600
11
6000
21
3600
0
LINE
8
A-ELEVATION
10
0
20
7200
11
6000
21
7200
0
LINE
8
A-ELEVATION
10
0
20
10800
11
6000
21
10800
0
ENDSEC
0
EOF
