0
SECTION
2
ENTITIES
0
LWPOLYLINE
8
frame
90
4
70
1
10
0
20
0
10
5600
20
0
10
5600
20
4200
10
0
20
4200
0
TEXT
8
A-TITLE
10
300
20
3850
40
220
1
First floor plan
0
LINE
8
A-GRID
10
0
20
0
11
0
21
3900
0
LINE
8
A-GRID
10
0
20
0
11
5200
21
0
0
LINE
8
A-WALL
10
700
20
700
11
5000
21
700
0
LINE
8
A-WALL
10
700
20
1000
11
5000
21
1000
0
ARC
8
A-DOOR
10
2600
20
850
40
900
50
0
51
90
0
TEXT
8
A-DIMS
10
2450
20
1300
40
180
1
M0921
0
LWPOLYLINE
8
frame
90
4
70
1
10
6500
20
0
10
12100
20
0
10
12100
20
4200
10
6500
20
4200
0
TEXT
8
A-TITLE
10
6800
20
3850
40
220
1
南立面
0
INSERT
8
A-DOOR
2
DOOR
10
9100
20
850
41
1
42
1
50
0
0
TEXT
8
A-DIMS
10
8950
20
1250
40
180
1
M0921
0
ENDSEC
0
EOF
