0
SECTION
2
HEADER
0
ENDSEC
0
SECTION
2
ENTITIES
0
TEXT
8
A-TITLE
10
0
20
5200
40
300
1
一层建筑平面图
0
TEXT
8
A-STAIR-TEXT
10
1000
20
4600
40
220
1
楼梯 12级 一层-二层 层高3.6m 踏步300x150
0
LWPOLYLINE
8
A-STAIR
90
4
70
1
10
1000
20
1000
10
4600
20
1000
10
4600
20
2200
10
1000
20
2200
0
LINE
8
A-STAIR
10
1300
20
1000
11
1300
21
2200
0
LINE
8
A-STAIR
10
1600
20
1000
11
1600
21
2200
0
LINE
8
A-STAIR
10
1900
20
1000
11
1900
21
2200
0
LINE
8
A-STAIR
10
2200
20
1000
11
2200
21
2200
0
LINE
8
A-STAIR
10
2500
20
1000
11
2500
21
2200
0
LINE
8
A-STAIR
10
2800
20
1000
11
2800
21
2200
0
LINE
8
A-STAIR
10
3100
20
1000
11
3100
21
2200
0
LINE
8
A-STAIR
10
3400
20
1000
11
3400
21
2200
0
LINE
8
A-STAIR
10
3700
20
1000
11
3700
21
2200
0
LINE
8
A-STAIR
10
4000
20
1000
11
4000
21
2200
0
LINE
8
A-STAIR
10
4300
20
1000
11
4300
21
2200
0
LINE
8
A-STAIR
10
4600
20
1000
11
4600
21
2200
0
ENDSEC
0
EOF
